#N canvas 245 160 1479 720 10;
#X obj 994 27 loadbang;
#X obj 994 92 s bela_setDigital;
#X obj 372 420 dac~;
#X obj 75 87 r bela_digitalIn11;
#X obj 217 93 r bela_digitalIn12;
#X obj 384 96 r bela_digitalIn13;
#X obj 524 93 r bela_digitalIn14;
#X obj 679 93 r bela_digitalIn15;
#X obj 75 132 sel 1 0;
#X msg 98 164 0;
#X msg 66 164 1;
#X obj 91 218 *~;
#X obj 217 137 sel 1 0;
#X msg 240 169 0;
#X msg 209 169 1;
#X obj 240 230 *~;
#X obj 385 142 sel 1 0;
#X msg 408 174 0;
#X msg 377 174 1;
#X obj 401 228 *~;
#X obj 524 136 sel 1 0;
#X msg 547 168 0;
#X msg 516 168 1;
#X obj 540 222 *~;
#X obj 679 136 sel 1 0;
#X msg 702 168 0;
#X msg 671 168 1;
#X obj 695 222 *~;
#X obj 112 189 osc~ 261;
#X obj 254 192 osc~ 293;
#X obj 422 199 osc~ 329;
#X obj 707 324 bng 15 250 50 0 empty empty empty 17 7 0 10 -262144
-1 -1;
#X obj 676 323 bng 15 250 50 0 empty empty empty 17 7 0 10 -262144
-1 -1;
#X msg 676 349 0;
#X msg 743 341 1;
#X obj 747 382 +;
#X obj 747 409 int;
#X obj 379 325 *~;
#X msg 576 352 1;
#X obj 584 398 /;
#X floatatom 587 440 5 0 0 0 - - -, f 5;
#X floatatom 797 412 5 0 0 0 - - -, f 5;
#X obj 561 193 osc~ 392;
#X obj 716 193 osc~ 440;
#X text 753 311 Dividing by the number of active tones;
#X text 739 137 Activating on 1;
#X msg 994 62 in 11 \, in 12 \, in 13 \, in 14 \, in 15 \, in 16;
#X obj 1057 168 r bela_digitalIn16;
#X obj 1057 203 sel 1 0;
#X text 1117 204 Activating on 1;
#X obj 1049 392 *~;
#X obj 1049 317 vline~;
#X msg 1049 268 1 20 \, 0 20 20;
#X text 1143 265 got to 1 (full volume) in 20 \, then go to zero (no
volume) in 20 ms after waiting 20 ms;
#X text 1097 316 translate to audio rate signal;
#X text 1127 349 generate 800 hz sine tone;
#X text 1079 391 multiply sine tone by amplitude envelope;
#X obj 1289 330 noise~;
#X obj 1290 356 lop~ 400;
#X obj 1064 348 osc~ 1500;
#X obj 1051 241 bng 15 250 50 0 empty empty empty 17 7 0 10 -262144
-1 -1;
#X connect 0 0 46 0;
#X connect 3 0 8 0;
#X connect 4 0 12 0;
#X connect 5 0 16 0;
#X connect 6 0 20 0;
#X connect 7 0 24 0;
#X connect 8 0 10 0;
#X connect 8 1 9 0;
#X connect 9 0 11 0;
#X connect 9 0 32 0;
#X connect 10 0 11 0;
#X connect 10 0 31 0;
#X connect 11 0 37 0;
#X connect 12 0 14 0;
#X connect 12 1 13 0;
#X connect 13 0 15 0;
#X connect 13 0 32 0;
#X connect 14 0 15 0;
#X connect 14 0 31 0;
#X connect 15 0 37 0;
#X connect 16 0 18 0;
#X connect 16 1 17 0;
#X connect 17 0 19 0;
#X connect 17 0 32 0;
#X connect 18 0 19 0;
#X connect 18 0 31 0;
#X connect 19 0 37 0;
#X connect 20 0 22 0;
#X connect 20 1 21 0;
#X connect 21 0 23 0;
#X connect 21 0 32 0;
#X connect 22 0 23 0;
#X connect 22 0 31 0;
#X connect 23 0 37 0;
#X connect 24 0 26 0;
#X connect 24 1 25 0;
#X connect 25 0 27 0;
#X connect 25 0 32 0;
#X connect 26 0 27 0;
#X connect 26 0 31 0;
#X connect 27 0 37 0;
#X connect 28 0 11 1;
#X connect 29 0 15 1;
#X connect 30 0 19 1;
#X connect 31 0 34 0;
#X connect 31 0 38 0;
#X connect 32 0 33 0;
#X connect 33 0 36 0;
#X connect 34 0 35 0;
#X connect 35 0 36 0;
#X connect 36 0 35 1;
#X connect 36 0 41 0;
#X connect 36 0 39 1;
#X connect 37 0 2 0;
#X connect 37 0 2 1;
#X connect 38 0 39 0;
#X connect 39 0 37 1;
#X connect 39 0 40 0;
#X connect 42 0 23 1;
#X connect 43 0 27 1;
#X connect 46 0 1 0;
#X connect 47 0 48 0;
#X connect 48 0 60 0;
#X connect 50 0 2 0;
#X connect 50 0 2 1;
#X connect 51 0 50 0;
#X connect 52 0 51 0;
#X connect 57 0 58 0;
#X connect 58 0 50 1;
#X connect 59 0 50 1;
#X connect 60 0 52 0;
