#N canvas 49 70 1717 822 10;
#X obj 1383 36 loadbang;
#X obj 1383 390 s bela_setDigital;
#X obj 761 718 dac~;
#X obj 381 344 r bela_digitalIn11;
#X obj 516 391 r bela_digitalIn12;
#X obj 683 394 r bela_digitalIn13;
#X obj 823 391 r bela_digitalIn14;
#X obj 978 391 r bela_digitalIn15;
#X obj 384 408 sel 1 0;
#X obj 480 516 *~;
#X obj 582 421 sel 1 0;
#X obj 648 543 *~;
#X obj 757 436 sel 1 0;
#X obj 790 526 *~;
#X obj 913 434 sel 1 0;
#X obj 929 520 *~;
#X obj 1068 434 sel 1 0;
#X obj 1084 520 *~;
#X obj 514 479 osc~ 261;
#X obj 662 505 osc~ 293;
#X obj 811 497 osc~ 329;
#X obj 950 491 osc~ 392;
#X obj 1105 491 osc~ 440;
#X text 1128 435 Activating on 1;
#X obj 1312 457 r bela_digitalIn16;
#X obj 1312 492 sel 1 0;
#X text 1372 493 Activating on 1;
#X obj 1304 681 *~;
#X obj 1304 606 vline~;
#X msg 1304 557 1 20 \, 0 20 20;
#X text 1398 554 got to 1 (full volume) in 20 \, then go to zero (no
volume) in 20 ms after waiting 20 ms;
#X text 1352 605 translate to audio rate signal;
#X text 1382 638 generate 800 hz sine tone;
#X text 1334 680 multiply sine tone by amplitude envelope;
#X obj 1544 619 noise~;
#X obj 1545 645 lop~ 400;
#X obj 1319 637 osc~ 1500;
#X obj 1306 530 bng 15 250 50 0 empty empty empty 17 7 0 10 -262144
-1 -1;
#X floatatom 512 274 5 0 0 0 - - -, f 5;
#X msg 550 222 261;
#X floatatom 659 273 5 0 0 0 - - -, f 5;
#X floatatom 816 280 5 0 0 0 - - -, f 5;
#X floatatom 955 274 5 0 0 0 - - -, f 5;
#X floatatom 1094 278 5 0 0 0 - - -, f 5;
#X msg 659 223 293;
#X msg 816 230 329;
#X msg 955 224 392;
#X msg 1094 228 440;
#X obj 749 127 bng 15 250 50 0 empty empty empty 17 7 0 10 -262144
-1 -1;
#X obj 1447 13 bng 40 250 50 0 empty empty empty 17 7 0 10 -258113
-1 -1;
#X msg 1442 70 4;
#X obj 1441 96 s octaveIterator;
#X text 1513 25 Reset;
#X obj 397 240 octaveDown;
#X obj 398 268 octaveUp;
#X msg 1116 460 0 100;
#X obj 767 670 *~ 1;
#X msg 1383 360 in 11 \, in 12 \, in 13 \, in 14 \, in 15 \, in 16
\, in 17 \, in 18;
#X obj 248 73 sel 1 0;
#X obj 183 24 r bela_digitalIn17;
#X obj 320 68 sel 1 0;
#X obj 325 22 r bela_digitalIn18;
#X obj 566 250 octaveDown;
#X obj 722 257 octaveDown;
#X obj 864 246 octaveDown;
#X obj 1009 258 octaveDown;
#X obj 572 285 octaveUp;
#X obj 728 292 octaveUp;
#X obj 875 287 octaveUp;
#X obj 1015 293 octaveUp;
#X obj 417 475 line~;
#X obj 590 487 line~;
#X obj 748 509 line~;
#X msg 337 445 0.2 10;
#X msg 430 445 0 10;
#X obj 890 500 line~;
#X obj 1047 494 line~;
#X msg 560 452 0.2 10;
#X msg 625 452 0 10;
#X msg 739 469 0.2 10;
#X msg 826 474 0 10;
#X msg 889 464 0.2 10;
#X msg 960 464 0 10;
#X msg 1045 461 0.2 10;
#X connect 0 0 57 0;
#X connect 0 0 48 0;
#X connect 0 0 50 0;
#X connect 3 0 8 0;
#X connect 4 0 10 0;
#X connect 5 0 12 0;
#X connect 6 0 14 0;
#X connect 7 0 16 0;
#X connect 8 0 73 0;
#X connect 8 1 74 0;
#X connect 9 0 56 0;
#X connect 10 0 77 0;
#X connect 10 1 78 0;
#X connect 11 0 56 0;
#X connect 12 0 79 0;
#X connect 12 1 80 0;
#X connect 13 0 56 0;
#X connect 14 0 81 0;
#X connect 14 1 82 0;
#X connect 15 0 56 0;
#X connect 16 0 83 0;
#X connect 16 1 55 0;
#X connect 17 0 56 0;
#X connect 18 0 9 1;
#X connect 19 0 11 1;
#X connect 20 0 13 1;
#X connect 21 0 15 1;
#X connect 22 0 17 1;
#X connect 24 0 25 0;
#X connect 25 0 37 0;
#X connect 27 0 56 0;
#X connect 28 0 27 0;
#X connect 29 0 28 0;
#X connect 34 0 35 0;
#X connect 35 0 27 1;
#X connect 36 0 27 1;
#X connect 37 0 29 0;
#X connect 38 0 18 0;
#X connect 38 0 53 1;
#X connect 38 0 54 1;
#X connect 39 0 38 0;
#X connect 40 0 19 0;
#X connect 40 0 62 1;
#X connect 40 0 66 1;
#X connect 41 0 20 0;
#X connect 41 0 63 1;
#X connect 41 0 67 1;
#X connect 42 0 21 0;
#X connect 42 0 64 1;
#X connect 42 0 68 1;
#X connect 43 0 22 0;
#X connect 43 0 65 1;
#X connect 43 0 69 1;
#X connect 44 0 40 0;
#X connect 45 0 41 0;
#X connect 46 0 42 0;
#X connect 47 0 43 0;
#X connect 48 0 39 0;
#X connect 48 0 44 0;
#X connect 48 0 45 0;
#X connect 48 0 46 0;
#X connect 48 0 47 0;
#X connect 49 0 48 0;
#X connect 49 0 50 0;
#X connect 50 0 51 0;
#X connect 53 0 38 0;
#X connect 54 0 38 0;
#X connect 55 0 76 0;
#X connect 56 0 2 0;
#X connect 56 0 2 1;
#X connect 57 0 1 0;
#X connect 58 0 54 0;
#X connect 58 0 66 0;
#X connect 58 0 67 0;
#X connect 58 0 68 0;
#X connect 58 0 69 0;
#X connect 59 0 58 0;
#X connect 60 0 53 0;
#X connect 60 0 62 0;
#X connect 60 0 63 0;
#X connect 60 0 64 0;
#X connect 60 0 65 0;
#X connect 61 0 60 0;
#X connect 62 0 40 0;
#X connect 63 0 41 0;
#X connect 64 0 42 0;
#X connect 65 0 43 0;
#X connect 66 0 40 0;
#X connect 67 0 41 0;
#X connect 68 0 42 0;
#X connect 69 0 43 0;
#X connect 70 0 9 0;
#X connect 71 0 11 0;
#X connect 72 0 13 0;
#X connect 73 0 70 0;
#X connect 74 0 70 0;
#X connect 75 0 15 0;
#X connect 76 0 17 0;
#X connect 77 0 71 0;
#X connect 78 0 71 0;
#X connect 79 0 72 0;
#X connect 80 0 72 0;
#X connect 81 0 75 0;
#X connect 82 0 75 0;
#X connect 83 0 76 0;
