#N canvas 0 58 1920 1022 10;
#X obj 1383 36 loadbang;
#X obj 1383 390 s bela_setDigital;
#X obj 761 718 dac~;
#X obj 464 385 r bela_digitalIn11;
#X obj 606 391 r bela_digitalIn12;
#X obj 773 394 r bela_digitalIn13;
#X obj 913 391 r bela_digitalIn14;
#X obj 1068 391 r bela_digitalIn15;
#X obj 464 430 sel 1 0;
#X msg 487 462 0;
#X msg 455 462 1;
#X obj 480 516 *~;
#X obj 606 435 sel 1 0;
#X msg 629 467 0;
#X msg 598 467 1;
#X obj 629 528 *~;
#X obj 774 440 sel 1 0;
#X msg 797 472 0;
#X msg 766 472 1;
#X obj 790 526 *~;
#X obj 913 434 sel 1 0;
#X msg 936 466 0;
#X msg 905 466 1;
#X obj 929 520 *~;
#X obj 1068 434 sel 1 0;
#X msg 1091 466 0;
#X msg 1060 466 1;
#X obj 1084 520 *~;
#X obj 501 487 osc~ 261;
#X obj 643 490 osc~ 293;
#X obj 811 497 osc~ 329;
#X obj 1096 622 bng 15 250 50 0 empty empty empty 17 7 0 10 -262144
-1 -1;
#X obj 1065 621 bng 15 250 50 0 empty empty empty 17 7 0 10 -262144
-1 -1;
#X msg 1065 647 0;
#X msg 1132 639 1;
#X obj 1136 680 +;
#X obj 1136 707 int;
#X obj 768 623 *~;
#X msg 965 650 1;
#X obj 973 696 /;
#X floatatom 976 738 5 0 0 0 - - -, f 5;
#X floatatom 1186 710 5 0 0 0 - - -, f 5;
#X obj 950 491 osc~ 392;
#X obj 1105 491 osc~ 440;
#X text 1142 609 Dividing by the number of active tones;
#X text 1128 435 Activating on 1;
#X msg 1383 360 in 11 \, in 12 \, in 13 \, in 14 \, in 15 \, in 16
;
#X obj 1446 466 r bela_digitalIn16;
#X obj 1446 501 sel 1 0;
#X text 1506 502 Activating on 1;
#X obj 1438 690 *~;
#X obj 1438 615 vline~;
#X msg 1438 566 1 20 \, 0 20 20;
#X text 1532 563 got to 1 (full volume) in 20 \, then go to zero (no
volume) in 20 ms after waiting 20 ms;
#X text 1486 614 translate to audio rate signal;
#X text 1516 647 generate 800 hz sine tone;
#X text 1468 689 multiply sine tone by amplitude envelope;
#X obj 1678 628 noise~;
#X obj 1679 654 lop~ 400;
#X obj 1453 646 osc~ 1500;
#X obj 1440 539 bng 15 250 50 0 empty empty empty 17 7 0 10 -262144
-1 -1;
#X floatatom 512 274 5 0 0 0 - - -, f 5;
#X msg 550 222 261;
#X floatatom 659 273 5 0 0 0 - - -, f 5;
#X floatatom 816 280 5 0 0 0 - - -, f 5;
#X floatatom 955 274 5 0 0 0 - - -, f 5;
#X floatatom 1094 278 5 0 0 0 - - -, f 5;
#X msg 659 223 293;
#X msg 816 230 329;
#X msg 955 224 392;
#X msg 1094 228 440;
#X obj 749 127 bng 15 250 50 0 empty empty empty 17 7 0 10 -262144
-1 -1;
#N canvas 497 261 905 584 octaveDown 0;
#X obj 198 123 bng 30 250 50 0 empty empty empty 17 7 0 10 -262144
-1 -1;
#X floatatom 86 291 5 0 0 0 - - -, f 5;
#X obj 198 207 f;
#X floatatom 198 253 5 0 0 0 - - -, f 5;
#X msg 64 171 2;
#X obj 86 241 /;
#X obj 143 410 outlet;
#X obj 281 190 inlet;
#X obj 218 80 inlet;
#X obj 168 187 bng 15 250 50 0 empty empty empty 17 7 0 10 -262144
-1 -1;
#X connect 0 0 4 0;
#X connect 1 0 6 0;
#X connect 2 0 3 0;
#X connect 2 0 5 0;
#X connect 4 0 5 1;
#X connect 4 0 9 0;
#X connect 5 0 1 0;
#X connect 7 0 2 1;
#X connect 8 0 0 0;
#X connect 9 0 2 0;
#X restore 393 240 pd octaveDown;
#N canvas 1059 274 788 576 octaveUp 0;
#X obj 198 123 bng 30 250 50 0 empty empty empty 17 7 0 10 -262144
-1 -1;
#X floatatom 86 291 5 0 0 0 - - -, f 5;
#X obj 198 207 f;
#X floatatom 198 253 5 0 0 0 - - -, f 5;
#X msg 64 171 2;
#X obj 143 410 outlet;
#X obj 281 190 inlet;
#X obj 218 80 inlet;
#X obj 168 187 bng 15 250 50 0 empty empty empty 17 7 0 10 -262144
-1 -1;
#X obj 86 241 *;
#X connect 0 0 4 0;
#X connect 1 0 5 0;
#X connect 2 0 3 0;
#X connect 2 0 9 1;
#X connect 4 0 8 0;
#X connect 4 0 9 0;
#X connect 6 0 2 1;
#X connect 7 0 0 0;
#X connect 8 0 2 0;
#X connect 9 0 1 0;
#X restore 398 268 pd octaveUp;
#N canvas 793 398 805 602 canOctave 1;
#X obj 106 52 inlet;
#X obj 33 347 outlet;
#X obj 624 51 inlet;
#X obj 706 360 outlet;
#X obj 346 39 r octaveIterator;
#X obj 106 128 i;
#X obj 106 91 bng 15 250 50 0 empty empty empty 17 7 0 10 -262144 -1
-1;
#X obj 624 132 i;
#X obj 624 92 bng 15 250 50 0 empty empty empty 17 7 0 10 -262144 -1
-1;
#X obj 17 145 print UP;
#X obj 726 149 print DOWN;
#X obj 128 128 + 1;
#X obj 646 132 - 1;
#X obj 106 182 select 8;
#X msg 106 213 8;
#X obj 358 303 s octaveIterator;
#X obj 624 182 select 1;
#X msg 535 228 1;
#X obj 33 310 select 1;
#X obj 706 295 > 1;
#X obj 706 329 select 1;
#X obj 33 275 < 8;
#X connect 0 0 6 0;
#X connect 2 0 8 0;
#X connect 4 0 5 1;
#X connect 4 0 7 1;
#X connect 5 0 9 0;
#X connect 5 0 11 0;
#X connect 5 0 13 0;
#X connect 5 0 21 0;
#X connect 6 0 5 0;
#X connect 7 0 10 0;
#X connect 7 0 12 0;
#X connect 7 0 16 0;
#X connect 7 0 19 0;
#X connect 8 0 7 0;
#X connect 11 0 5 1;
#X connect 12 0 7 1;
#X connect 13 0 14 0;
#X connect 14 0 15 0;
#X connect 16 0 17 0;
#X connect 17 0 15 0;
#X connect 18 0 1 0;
#X connect 19 0 20 0;
#X connect 20 0 3 0;
#X connect 21 0 18 0;
#X restore 398 107 pd canOctave;
#X obj 362 45 bng 15 250 50 0 empty empty empty 17 7 0 10 -262144 -1
-1;
#X obj 502 43 bng 15 250 50 0 empty empty empty 17 7 0 10 -262144 -1
-1;
#N canvas 497 261 905 584 octaveDown 0;
#X obj 198 123 bng 30 250 50 0 empty empty empty 17 7 0 10 -262144
-1 -1;
#X floatatom 86 291 5 0 0 0 - - -, f 5;
#X obj 198 207 f;
#X floatatom 198 253 5 0 0 0 - - -, f 5;
#X msg 64 171 2;
#X obj 86 241 /;
#X obj 143 410 outlet;
#X obj 281 190 inlet;
#X obj 218 80 inlet;
#X obj 168 187 bng 15 250 50 0 empty empty empty 17 7 0 10 -262144
-1 -1;
#X connect 0 0 4 0;
#X connect 1 0 6 0;
#X connect 2 0 3 0;
#X connect 2 0 5 0;
#X connect 4 0 5 1;
#X connect 4 0 9 0;
#X connect 5 0 1 0;
#X connect 7 0 2 1;
#X connect 8 0 0 0;
#X connect 9 0 2 0;
#X restore 566 250 pd octaveDown;
#N canvas 1059 274 788 576 octaveUp 0;
#X obj 198 123 bng 30 250 50 0 empty empty empty 17 7 0 10 -262144
-1 -1;
#X floatatom 86 291 5 0 0 0 - - -, f 5;
#X obj 198 207 f;
#X floatatom 198 253 5 0 0 0 - - -, f 5;
#X msg 64 171 2;
#X obj 143 410 outlet;
#X obj 281 190 inlet;
#X obj 218 80 inlet;
#X obj 168 187 bng 15 250 50 0 empty empty empty 17 7 0 10 -262144
-1 -1;
#X obj 86 241 *;
#X connect 0 0 4 0;
#X connect 1 0 5 0;
#X connect 2 0 3 0;
#X connect 2 0 9 1;
#X connect 4 0 8 0;
#X connect 4 0 9 0;
#X connect 6 0 2 1;
#X connect 7 0 0 0;
#X connect 8 0 2 0;
#X connect 9 0 1 0;
#X restore 572 285 pd octaveUp;
#N canvas 497 261 905 584 octaveDown 0;
#X obj 198 123 bng 30 250 50 0 empty empty empty 17 7 0 10 -262144
-1 -1;
#X floatatom 86 291 5 0 0 0 - - -, f 5;
#X obj 198 207 f;
#X floatatom 198 253 5 0 0 0 - - -, f 5;
#X msg 64 171 2;
#X obj 86 241 /;
#X obj 143 410 outlet;
#X obj 281 190 inlet;
#X obj 218 80 inlet;
#X obj 168 187 bng 15 250 50 0 empty empty empty 17 7 0 10 -262144
-1 -1;
#X connect 0 0 4 0;
#X connect 1 0 6 0;
#X connect 2 0 3 0;
#X connect 2 0 5 0;
#X connect 4 0 5 1;
#X connect 4 0 9 0;
#X connect 5 0 1 0;
#X connect 7 0 2 1;
#X connect 8 0 0 0;
#X connect 9 0 2 0;
#X restore 722 257 pd octaveDown;
#N canvas 1059 274 788 576 octaveUp 0;
#X obj 198 123 bng 30 250 50 0 empty empty empty 17 7 0 10 -262144
-1 -1;
#X floatatom 86 291 5 0 0 0 - - -, f 5;
#X obj 198 207 f;
#X floatatom 198 253 5 0 0 0 - - -, f 5;
#X msg 64 171 2;
#X obj 143 410 outlet;
#X obj 281 190 inlet;
#X obj 218 80 inlet;
#X obj 168 187 bng 15 250 50 0 empty empty empty 17 7 0 10 -262144
-1 -1;
#X obj 86 241 *;
#X connect 0 0 4 0;
#X connect 1 0 5 0;
#X connect 2 0 3 0;
#X connect 2 0 9 1;
#X connect 4 0 8 0;
#X connect 4 0 9 0;
#X connect 6 0 2 1;
#X connect 7 0 0 0;
#X connect 8 0 2 0;
#X connect 9 0 1 0;
#X restore 728 292 pd octaveUp;
#N canvas 497 261 905 584 octaveDown 0;
#X obj 198 123 bng 30 250 50 0 empty empty empty 17 7 0 10 -262144
-1 -1;
#X floatatom 86 291 5 0 0 0 - - -, f 5;
#X obj 198 207 f;
#X floatatom 198 253 5 0 0 0 - - -, f 5;
#X msg 64 171 2;
#X obj 86 241 /;
#X obj 143 410 outlet;
#X obj 281 190 inlet;
#X obj 218 80 inlet;
#X obj 168 187 bng 15 250 50 0 empty empty empty 17 7 0 10 -262144
-1 -1;
#X connect 0 0 4 0;
#X connect 1 0 6 0;
#X connect 2 0 3 0;
#X connect 2 0 5 0;
#X connect 4 0 5 1;
#X connect 4 0 9 0;
#X connect 5 0 1 0;
#X connect 7 0 2 1;
#X connect 8 0 0 0;
#X connect 9 0 2 0;
#X restore 869 252 pd octaveDown;
#N canvas 1059 274 788 576 octaveUp 0;
#X obj 198 123 bng 30 250 50 0 empty empty empty 17 7 0 10 -262144
-1 -1;
#X floatatom 86 291 5 0 0 0 - - -, f 5;
#X obj 198 207 f;
#X floatatom 198 253 5 0 0 0 - - -, f 5;
#X msg 64 171 2;
#X obj 143 410 outlet;
#X obj 281 190 inlet;
#X obj 218 80 inlet;
#X obj 168 187 bng 15 250 50 0 empty empty empty 17 7 0 10 -262144
-1 -1;
#X obj 86 241 *;
#X connect 0 0 4 0;
#X connect 1 0 5 0;
#X connect 2 0 3 0;
#X connect 2 0 9 1;
#X connect 4 0 8 0;
#X connect 4 0 9 0;
#X connect 6 0 2 1;
#X connect 7 0 0 0;
#X connect 8 0 2 0;
#X connect 9 0 1 0;
#X restore 875 287 pd octaveUp;
#N canvas 497 261 905 584 octaveDown 0;
#X obj 198 123 bng 30 250 50 0 empty empty empty 17 7 0 10 -262144
-1 -1;
#X floatatom 86 291 5 0 0 0 - - -, f 5;
#X obj 198 207 f;
#X floatatom 198 253 5 0 0 0 - - -, f 5;
#X msg 64 171 2;
#X obj 86 241 /;
#X obj 143 410 outlet;
#X obj 281 190 inlet;
#X obj 218 80 inlet;
#X obj 168 187 bng 15 250 50 0 empty empty empty 17 7 0 10 -262144
-1 -1;
#X connect 0 0 4 0;
#X connect 1 0 6 0;
#X connect 2 0 3 0;
#X connect 2 0 5 0;
#X connect 4 0 5 1;
#X connect 4 0 9 0;
#X connect 5 0 1 0;
#X connect 7 0 2 1;
#X connect 8 0 0 0;
#X connect 9 0 2 0;
#X restore 1009 258 pd octaveDown;
#N canvas 1059 274 788 576 octaveUp 0;
#X obj 198 123 bng 30 250 50 0 empty empty empty 17 7 0 10 -262144
-1 -1;
#X floatatom 86 291 5 0 0 0 - - -, f 5;
#X obj 198 207 f;
#X floatatom 198 253 5 0 0 0 - - -, f 5;
#X msg 64 171 2;
#X obj 143 410 outlet;
#X obj 281 190 inlet;
#X obj 218 80 inlet;
#X obj 168 187 bng 15 250 50 0 empty empty empty 17 7 0 10 -262144
-1 -1;
#X obj 86 241 *;
#X connect 0 0 4 0;
#X connect 1 0 5 0;
#X connect 2 0 3 0;
#X connect 2 0 9 1;
#X connect 4 0 8 0;
#X connect 4 0 9 0;
#X connect 6 0 2 1;
#X connect 7 0 0 0;
#X connect 8 0 2 0;
#X connect 9 0 1 0;
#X restore 1015 293 pd octaveUp;
#X obj 1447 13 bng 40 250 50 0 empty empty empty 17 7 0 10 -258113
-1 -1;
#X msg 1442 70 4;
#X obj 1441 96 s octaveIterator;
#X text 1513 25 Reset;
#X connect 0 0 46 0;
#X connect 0 0 71 0;
#X connect 0 0 86 0;
#X connect 3 0 8 0;
#X connect 4 0 12 0;
#X connect 5 0 16 0;
#X connect 6 0 20 0;
#X connect 7 0 24 0;
#X connect 8 0 10 0;
#X connect 8 1 9 0;
#X connect 9 0 11 0;
#X connect 9 0 32 0;
#X connect 10 0 11 0;
#X connect 10 0 31 0;
#X connect 11 0 37 0;
#X connect 12 0 14 0;
#X connect 12 1 13 0;
#X connect 13 0 15 0;
#X connect 13 0 32 0;
#X connect 14 0 15 0;
#X connect 14 0 31 0;
#X connect 15 0 37 0;
#X connect 16 0 18 0;
#X connect 16 1 17 0;
#X connect 17 0 19 0;
#X connect 17 0 32 0;
#X connect 18 0 19 0;
#X connect 18 0 31 0;
#X connect 19 0 37 0;
#X connect 20 0 22 0;
#X connect 20 1 21 0;
#X connect 21 0 23 0;
#X connect 21 0 32 0;
#X connect 22 0 23 0;
#X connect 22 0 31 0;
#X connect 23 0 37 0;
#X connect 24 0 26 0;
#X connect 24 1 25 0;
#X connect 25 0 27 0;
#X connect 25 0 32 0;
#X connect 26 0 27 0;
#X connect 26 0 31 0;
#X connect 27 0 37 0;
#X connect 28 0 11 1;
#X connect 29 0 15 1;
#X connect 30 0 19 1;
#X connect 31 0 34 0;
#X connect 31 0 38 0;
#X connect 32 0 33 0;
#X connect 33 0 36 0;
#X connect 34 0 35 0;
#X connect 35 0 36 0;
#X connect 36 0 35 1;
#X connect 36 0 41 0;
#X connect 36 0 39 1;
#X connect 37 0 2 0;
#X connect 37 0 2 1;
#X connect 38 0 39 0;
#X connect 39 0 37 1;
#X connect 39 0 40 0;
#X connect 42 0 23 1;
#X connect 43 0 27 1;
#X connect 46 0 1 0;
#X connect 47 0 48 0;
#X connect 48 0 60 0;
#X connect 50 0 2 0;
#X connect 50 0 2 1;
#X connect 51 0 50 0;
#X connect 52 0 51 0;
#X connect 57 0 58 0;
#X connect 58 0 50 1;
#X connect 59 0 50 1;
#X connect 60 0 52 0;
#X connect 61 0 28 0;
#X connect 61 0 72 1;
#X connect 61 0 73 1;
#X connect 62 0 61 0;
#X connect 63 0 29 0;
#X connect 63 0 77 1;
#X connect 63 0 78 1;
#X connect 64 0 30 0;
#X connect 64 0 79 1;
#X connect 64 0 80 1;
#X connect 65 0 42 0;
#X connect 65 0 82 1;
#X connect 65 0 81 1;
#X connect 66 0 43 0;
#X connect 66 0 83 1;
#X connect 66 0 84 1;
#X connect 67 0 63 0;
#X connect 68 0 64 0;
#X connect 69 0 65 0;
#X connect 70 0 66 0;
#X connect 71 0 62 0;
#X connect 71 0 67 0;
#X connect 71 0 68 0;
#X connect 71 0 69 0;
#X connect 71 0 70 0;
#X connect 72 0 61 0;
#X connect 73 0 61 0;
#X connect 74 0 73 0;
#X connect 74 0 78 0;
#X connect 74 0 80 0;
#X connect 74 0 82 0;
#X connect 74 0 84 0;
#X connect 74 1 72 0;
#X connect 74 1 77 0;
#X connect 74 1 79 0;
#X connect 74 1 81 0;
#X connect 74 1 83 0;
#X connect 75 0 74 0;
#X connect 76 0 74 1;
#X connect 77 0 63 0;
#X connect 78 0 63 0;
#X connect 79 0 64 0;
#X connect 80 0 64 0;
#X connect 81 0 65 0;
#X connect 82 0 65 0;
#X connect 83 0 66 0;
#X connect 84 0 66 0;
#X connect 85 0 71 0;
#X connect 85 0 86 0;
#X connect 86 0 87 0;
