#N canvas 521 256 1267 501 10;
#X obj 994 27 loadbang;
#X obj 994 92 s bela_setDigital;
#X obj 372 420 dac~;
#X msg 994 62 in 11 \, in 12 \, in 13 \, in 14 \, in 15;
#X obj 75 68 r bela_digitalIn11;
#X obj 217 74 r bela_digitalIn12;
#X obj 384 77 r bela_digitalIn13;
#X obj 524 74 r bela_digitalIn14;
#X obj 679 70 r bela_digitalIn15;
#X obj 75 132 sel 1 0;
#X msg 98 164 0;
#X msg 66 164 1;
#X obj 91 218 *~;
#X obj 217 137 sel 1 0;
#X msg 240 169 0;
#X msg 209 169 1;
#X obj 240 230 *~;
#X obj 385 142 sel 1 0;
#X msg 408 174 0;
#X msg 377 174 1;
#X obj 401 228 *~;
#X obj 524 136 sel 1 0;
#X msg 547 168 0;
#X msg 516 168 1;
#X obj 540 222 *~;
#X obj 679 136 sel 1 0;
#X msg 702 168 0;
#X msg 671 168 1;
#X obj 695 222 *~;
#X obj 112 189 osc~ 261;
#X obj 254 192 osc~ 293;
#X obj 422 199 osc~ 329;
#X obj 561 193 osc~ 349;
#X obj 716 193 osc~ 396;
#X obj 384 104 bng 15 250 50 0 empty empty empty 17 7 0 10 -262144
-1 -1;
#X msg 157 162 0.75;
#X msg 467 170 0 \, 75;
#X msg 606 168 0.75;
#X msg 761 168 0.75;
#X msg 299 165 0.75;
#X obj 657 293 bng 15 250 50 0 empty empty empty 17 7 0 10 -262144
-1 -1;
#X obj 626 292 bng 15 250 50 0 empty empty empty 17 7 0 10 -262144
-1 -1;
#X msg 626 318 0;
#X msg 693 310 1;
#X obj 697 351 +;
#X obj 697 378 int;
#X obj 379 325 *~;
#X msg 526 321 1;
#X obj 534 367 /;
#X floatatom 537 409 5 0 0 0 - - -, f 5;
#X floatatom 747 381 5 0 0 0 - - -, f 5;
#X connect 0 0 3 0;
#X connect 3 0 1 0;
#X connect 4 0 9 0;
#X connect 4 0 34 0;
#X connect 5 0 13 0;
#X connect 5 0 34 0;
#X connect 6 0 17 0;
#X connect 6 0 34 0;
#X connect 7 0 21 0;
#X connect 7 0 34 0;
#X connect 8 0 25 0;
#X connect 8 0 34 0;
#X connect 9 0 11 0;
#X connect 9 1 10 0;
#X connect 10 0 12 0;
#X connect 10 0 41 0;
#X connect 11 0 12 0;
#X connect 11 0 40 0;
#X connect 12 0 46 0;
#X connect 13 0 15 0;
#X connect 13 1 14 0;
#X connect 14 0 16 0;
#X connect 14 0 41 0;
#X connect 15 0 16 0;
#X connect 15 0 40 0;
#X connect 16 0 46 0;
#X connect 17 0 19 0;
#X connect 17 1 18 0;
#X connect 18 0 20 0;
#X connect 18 0 41 0;
#X connect 19 0 20 0;
#X connect 19 0 40 0;
#X connect 20 0 46 0;
#X connect 21 0 23 0;
#X connect 21 1 22 0;
#X connect 22 0 24 0;
#X connect 22 0 41 0;
#X connect 23 0 24 0;
#X connect 23 0 40 0;
#X connect 24 0 46 0;
#X connect 25 0 27 0;
#X connect 25 1 26 0;
#X connect 26 0 28 0;
#X connect 26 0 41 0;
#X connect 27 0 28 0;
#X connect 27 0 40 0;
#X connect 28 0 46 0;
#X connect 29 0 12 1;
#X connect 30 0 16 1;
#X connect 31 0 20 1;
#X connect 32 0 24 1;
#X connect 33 0 28 1;
#X connect 34 0 39 0;
#X connect 34 0 35 0;
#X connect 34 0 36 0;
#X connect 34 0 37 0;
#X connect 34 0 38 0;
#X connect 35 0 29 1;
#X connect 36 0 31 1;
#X connect 37 0 32 1;
#X connect 38 0 33 1;
#X connect 39 0 30 1;
#X connect 40 0 43 0;
#X connect 40 0 47 0;
#X connect 41 0 42 0;
#X connect 42 0 45 0;
#X connect 43 0 44 0;
#X connect 44 0 45 0;
#X connect 45 0 44 1;
#X connect 45 0 50 0;
#X connect 45 0 48 1;
#X connect 46 0 2 0;
#X connect 46 0 2 1;
#X connect 47 0 48 0;
#X connect 48 0 46 1;
#X connect 48 0 49 0;
