#N canvas 0 70 1920 946 10;
#X obj 198 123 bng 30 250 50 0 empty empty empty 17 7 0 10 -262144
-1 -1;
#X floatatom 86 291 5 0 0 0 - - -, f 5;
#X obj 198 207 f;
#X floatatom 198 253 5 0 0 0 - - -, f 5;
#X msg 64 171 2;
#X obj 86 241 /;
#X obj 143 410 outlet;
#X obj 281 190 inlet;
#X obj 218 80 inlet;
#X obj 168 187 bng 15 250 50 0 empty empty empty 17 7 0 10 -262144
-1 -1;
#X obj 170 321 print;
#X connect 0 0 4 0;
#X connect 1 0 6 0;
#X connect 1 0 10 0;
#X connect 2 0 3 0;
#X connect 2 0 5 0;
#X connect 4 0 5 1;
#X connect 4 0 9 0;
#X connect 5 0 1 0;
#X connect 7 0 2 1;
#X connect 8 0 0 0;
#X connect 9 0 2 0;
